HIERARCHY
ROOT Hips
{
	OFFSET 0.000000 0.000000 0.000000
	CHANNELS 6 Xposition Yposition Zposition Xrotation Yrotation Zrotation
	JOINT LeftUpLeg_virtual
	{
		OFFSET 0.000000 0.000000 0.000000
		CHANNELS 3 Xrotation Yrotation Zrotation
		JOINT LeftUpLeg
		{
			OFFSET 11.394100 -6.187798 -0.413800
			CHANNELS 3 Xrotation Yrotation Zrotation
			JOINT LeftLeg
			{
				OFFSET 0.430247 -32.302673 3.732800
				CHANNELS 3 Xrotation Yrotation Zrotation
				JOINT LeftFoot
				{
					OFFSET -0.430247 -48.264931 -6.423300
					CHANNELS 3 Xrotation Yrotation Zrotation
					JOINT LeftToeBase
					{
						OFFSET 4.230900 -16.068199 23.438400
						CHANNELS 3 Xrotation Yrotation Zrotation
						JOINT LeftToe_End
						{
							OFFSET 4.510700 0.695400 19.974600
							CHANNELS 3 Xrotation Yrotation Zrotation
							End Site
							{
								OFFSET 0 0 0
							}
						}
					}
				}
			}
		}
	}
	JOINT RightUpLeg_virtual
	{
		OFFSET 0.000000 0.000000 0.000000
		CHANNELS 3 Xrotation Yrotation Zrotation
		JOINT RightUpLeg
		{
			OFFSET -11.333700 -6.187798 -0.413800
			CHANNELS 3 Xrotation Yrotation Zrotation
			JOINT RightLeg
			{
				OFFSET -0.430392 -32.302628 3.733000
				CHANNELS 3 Xrotation Yrotation Zrotation
				JOINT RightFoot
				{
					OFFSET 0.430392 -48.264973 -6.423500
					CHANNELS 3 Xrotation Yrotation Zrotation
					JOINT RightToeBase
					{
						OFFSET -4.230900 -16.068199 23.438400
						CHANNELS 3 Xrotation Yrotation Zrotation
						JOINT RightToe_End
						{
							OFFSET -4.510700 0.695400 19.974600
							CHANNELS 3 Xrotation Yrotation Zrotation
							End Site
							{
								OFFSET 0 0 0
							}
						}
					}
				}
			}
		}
	}
	JOINT Spine_virtual
	{
		OFFSET 0.000000 0.000000 0.000000
		CHANNELS 3 Xrotation Yrotation Zrotation
		JOINT Spine
		{
			OFFSET -0.002400 12.777504 0.315300
			CHANNELS 3 Xrotation Yrotation Zrotation
			JOINT Spine1
			{
				OFFSET -0.002067 5.816869 0.032633
				CHANNELS 3 Xrotation Yrotation Zrotation
				JOINT Spine1_split
				{
					OFFSET -0.002067 5.816869 0.032633
					CHANNELS 3 Xrotation Yrotation Zrotation
					JOINT Spine2
					{
						OFFSET -0.002067 5.816869 0.032633
						CHANNELS 3 Xrotation Yrotation Zrotation
						JOINT Neck_virtual
						{
							OFFSET 0.000000 0.000000 0.000000
							CHANNELS 3 Xrotation Yrotation Zrotation
							JOINT Neck
							{
								OFFSET -0.003700 21.199493 -0.826900
								CHANNELS 3 Xrotation Yrotation Zrotation
								JOINT Head
								{
									OFFSET 0.000000 20.442200 4.834800
									CHANNELS 3 Xrotation Yrotation Zrotation
									JOINT HeadTop_End
									{
										OFFSET 0.000000 34.668396 4.968400
										CHANNELS 3 Xrotation Yrotation Zrotation
										End Site
										{
											OFFSET 0 0 0
										}
									}
								}
							}
						}
						JOINT LeftShoulder_virtual
						{
							OFFSET 0.000000 0.000000 0.000000
							CHANNELS 3 Xrotation Yrotation Zrotation
							JOINT LeftShoulder
							{
								OFFSET 3.288150 8.794197 -1.372250
								CHANNELS 3 Xrotation Yrotation Zrotation
								JOINT LeftShoulder_split
								{
									OFFSET 3.288150 8.794197 -1.372250
									CHANNELS 3 Xrotation Yrotation Zrotation
									JOINT LeftArm
									{
										OFFSET 11.953299 -2.279007 -0.146200
										CHANNELS 3 Xrotation Yrotation Zrotation
										JOINT LeftForeArm
										{
											OFFSET 18.448900 0.000000 0.000000
											CHANNELS 3 Xrotation Yrotation Zrotation
											JOINT LeftHand
											{
												OFFSET 29.527798 0.000000 0.000000
												CHANNELS 3 Xrotation Yrotation Zrotation
												End Site
												{
													OFFSET 0 0 0
												}
											}
										}
									}
								}
							}
						}
						JOINT RightShoulder_virtual
						{
							OFFSET 0.000000 0.000000 0.000000
							CHANNELS 3 Xrotation Yrotation Zrotation
							JOINT RightShoulder
							{
								OFFSET -3.249400 8.794197 -1.372250
								CHANNELS 3 Xrotation Yrotation Zrotation
								JOINT RightShoulder_split
								{
									OFFSET -3.249400 8.794197 -1.372250
									CHANNELS 3 Xrotation Yrotation Zrotation
									JOINT RightArm
									{
										OFFSET -11.953299 -2.279007 -0.146200
										CHANNELS 3 Xrotation Yrotation Zrotation
										JOINT RightForeArm
										{
											OFFSET -18.448900 0.000000 0.000000
											CHANNELS 3 Xrotation Yrotation Zrotation
											JOINT RightHand
											{
												OFFSET -29.527802 0.000000 0.000000
												CHANNELS 3 Xrotation Yrotation Zrotation
												End Site
												{
													OFFSET 0 0 0
												}
											}
										}
									}
								}
							}
						}
					}
				}
			}
		}
	}
}
MOTION
Frames: 10
Frame Time: 0.03333333
-2.897776 86.076134 -5.568306 0.000000 0.000000 0.000000 1.610032 -52.687089 4.676441 -39.038096 15.568720 25.974292 44.860116 -0.056833 -5.213528 -7.057748 8.422739 -13.601073 4.038591 1.592441 -3.803781 0.000000 0.000000 0.000000 0.598469 -50.323352 4.110839 -34.694967 -3.016674 -20.100953 48.247725 9.323907 -6.734082 -15.747092 -4.899314 31.409366 8.807392 8.959980 -28.450567 0.000000 0.000000 0.000000 -3.026957 -44.692506 0.200427 10.408965 -3.372370 -1.014047 7.480002 -1.668124 -7.375015 0.298665 -0.486866 0.217479 0.000000 0.000000 0.000000 10.535129 0.404086 -5.028161 -1.776095 26.004695 -0.720920 -36.669189 -11.716306 10.086938 0.000000 0.000000 0.000000 10.065725 -1.021372 -6.141185 1.393131 -8.314544 -6.660290 5.667148 -11.600879 1.657461 -44.058443 17.204316 -30.406052 35.436637 -34.670515 22.539267 0.000000 0.000000 0.000000 7.752205 -2.206200 -6.733115 -7.193356 3.510714 1.777755 9.431591 -5.913966 5.863837 -51.160371 -5.945079 41.697362 93.050406 71.598332 -83.587035 0.000000 0.000000 0.000000 
-3.182762 85.905144 -5.873276 0.000000 0.000000 0.000000 1.610758 -52.767490 4.689460 -38.810457 15.776550 25.879396 45.262697 -0.306174 -5.044331 -7.662953 8.455967 -13.153553 3.785039 1.546084 -4.059496 0.000000 0.000000 0.000000 0.711841 -50.206132 4.048453 -34.571293 -3.340689 -20.093756 48.607178 9.413738 -6.700372 -16.453688 -5.341306 30.415283 10.569674 8.741027 -28.299425 0.000000 0.000000 0.000000 -3.027396 -44.555909 0.357291 10.408421 -3.595542 -1.142413 7.249701 -1.480210 -7.246671 0.080740 -0.403272 0.310925 0.000000 0.000000 0.000000 10.203774 0.439626 -4.921564 -3.169897 25.785001 0.529124 -36.907538 -12.258006 8.940603 0.000000 0.000000 0.000000 9.816885 -0.825259 -6.196772 1.493347 -7.728825 -6.451560 6.570446 -11.656966 1.934952 -45.154063 16.957405 -31.554603 36.338170 -33.268957 22.851731 0.000000 0.000000 0.000000 7.621342 -2.037011 -6.747132 -7.577981 3.932012 2.075276 9.307051 -4.630214 5.323571 -48.450493 -6.998095 41.625270 100.588059 72.236484 -91.072854 0.000000 0.000000 0.000000 
-3.728300 85.806702 -6.097145 0.000000 0.000000 0.000000 1.346323 -52.826186 4.381028 -38.457479 15.653834 25.838566 46.103039 -0.990105 -4.781977 -7.905476 8.038300 -12.816005 3.451778 1.465051 -4.399209 0.000000 0.000000 0.000000 0.585888 -50.072315 3.698317 -33.694737 -4.026341 -20.115836 48.498902 9.735174 -6.683101 -16.735167 -6.122775 30.372448 10.242601 8.721490 -27.558369 0.000000 0.000000 0.000000 -3.066742 -44.399812 0.305965 10.237082 -3.794538 -1.094214 7.028672 -1.443482 -6.928087 -0.015906 -0.355908 0.290194 0.000000 0.000000 0.000000 9.722773 0.398410 -4.610522 -4.413182 26.101892 2.063396 -37.697935 -10.443216 7.786842 0.000000 0.000000 0.000000 9.571136 -0.818306 -6.013243 1.571174 -6.457722 -5.861496 6.296251 -11.625537 1.832461 -43.938344 16.850010 -30.938786 35.498464 -34.995041 22.614502 0.000000 0.000000 0.000000 7.331454 -2.022294 -6.479861 -8.020911 4.006571 2.234602 9.792624 -3.484779 4.675866 -42.085904 -7.451958 41.145886 107.598033 71.871014 -98.778824 0.000000 0.000000 0.000000 
-4.433456 85.997047 -6.114754 0.000000 0.000000 0.000000 0.845325 -52.495840 3.762069 -37.768661 15.330143 25.720279 46.545936 -1.942584 -4.438492 -7.747379 7.236311 -12.610685 2.486769 1.359346 -4.313323 0.000000 0.000000 0.000000 0.195057 -49.848046 3.067496 -31.757897 -5.094665 -20.059342 47.625058 10.065290 -6.580755 -16.783715 -7.339791 30.946491 8.261195 8.748604 -26.340358 0.000000 0.000000 0.000000 -3.046774 -44.142300 0.138622 9.948011 -3.882122 -0.984817 6.818264 -1.521920 -6.528028 0.059239 -0.287196 0.189464 0.000000 0.000000 0.000000 9.161063 0.323349 -4.177762 -5.341411 26.627667 3.942152 -38.584254 -6.374488 7.042322 0.000000 0.000000 0.000000 9.273616 -0.884628 -5.646433 1.584457 -4.354312 -4.678024 5.447435 -11.685630 1.704919 -40.990991 17.771635 -28.072861 33.464082 -40.670276 22.284197 0.000000 0.000000 0.000000 6.937999 -2.103561 -6.017873 -8.523754 3.543290 2.133737 10.254649 -3.091610 4.003511 -33.771744 -7.376227 40.104695 110.297781 70.922198 -102.904873 0.000000 0.000000 0.000000 
-5.299594 86.707748 -5.862610 0.000000 0.000000 0.000000 0.249928 -51.759365 2.933432 -36.412121 14.878918 25.316154 45.829644 -2.937769 -4.035184 -7.281304 6.252607 -12.373102 1.117618 1.171171 -3.671464 0.000000 0.000000 0.000000 -0.217319 -49.353622 2.358139 -28.562576 -6.579164 -19.777038 45.405571 10.156474 -6.258962 -16.864692 -8.937580 31.416012 6.500315 8.474281 -25.063557 0.000000 0.000000 0.000000 -2.921216 -43.697467 -0.034674 9.594147 -3.779202 -0.949765 6.548714 -1.580364 -6.109019 0.223855 -0.204825 0.094327 0.000000 0.000000 0.000000 8.632210 0.301829 -3.726078 -5.865541 26.974811 6.242129 -39.291671 -0.991505 6.927046 0.000000 0.000000 0.000000 8.820665 -0.881815 -5.174709 1.404416 -1.397232 -2.921047 4.043695 -11.885201 1.745080 -37.648655 20.562008 -22.878477 30.680861 -49.587156 21.835775 0.000000 0.000000 0.000000 6.436274 -2.134950 -5.434382 -9.136891 2.508650 1.582521 10.478022 -4.223173 3.747053 -25.060970 -7.010836 38.373307 107.996335 69.850200 -102.679607 0.000000 0.000000 0.000000 
-6.313342 88.070190 -5.345905 0.000000 0.000000 0.000000 -0.298114 -50.576909 2.037375 -34.411999 14.442123 24.614047 43.685979 -3.743496 -3.663285 -6.569141 5.394547 -11.946937 0.511109 0.865475 -2.862579 0.000000 0.000000 0.000000 -0.546448 -48.551881 1.622567 -24.223676 -8.420806 -19.180010 41.446319 9.974819 -5.612514 -17.037420 -10.649330 31.317565 6.212938 7.883799 -24.095154 0.000000 0.000000 0.000000 -2.493713 -43.066849 -0.121792 9.243898 -3.462259 -1.121899 6.130625 -1.509368 -5.719831 0.259446 -0.154302 0.033213 0.000000 0.000000 0.000000 8.265588 0.406715 -3.353148 -5.840759 26.844460 8.864161 -39.781023 4.217687 7.360471 0.000000 0.000000 0.000000 8.121143 -0.703312 -4.646215 0.880397 2.410390 -0.501009 2.555678 -11.923204 2.184502 -35.572520 24.985927 -15.919953 27.312591 -60.005589 20.883025 0.000000 0.000000 0.000000 5.856212 -2.048345 -4.814488 -9.906763 0.906464 0.573402 10.396363 -6.380930 3.444607 -17.379777 -6.764349 35.995121 102.381168 68.742562 -99.477703 0.000000 0.000000 0.000000 
-7.466040 89.983505 -4.636631 0.000000 0.000000 0.000000 -0.605833 -49.124309 1.247062 -32.043733 14.134241 23.783941 40.315318 -4.338809 -3.357534 -5.478607 4.791368 -11.457306 0.866343 0.491448 -1.908227 0.000000 0.000000 0.000000 -0.562338 -47.464163 1.035820 -19.163395 -10.464384 -18.244832 35.817614 9.704763 -4.741846 -16.924854 -12.046978 30.793672 7.031225 7.340050 -23.803718 0.000000 0.000000 0.000000 -1.862360 -42.228628 -0.139274 8.963727 -2.940581 -1.521632 5.489631 -1.275540 -5.356497 0.195409 -0.099410 0.011216 0.000000 0.000000 0.000000 8.065406 0.669035 -3.108312 -5.130031 26.241916 11.590596 -40.000607 8.246790 8.098026 0.000000 0.000000 0.000000 7.216176 -0.368597 -4.154055 -0.074980 6.730470 2.521054 1.281034 -12.217760 3.412488 -35.704534 30.012818 -7.840045 23.415914 -69.809396 18.985056 0.000000 0.000000 0.000000 5.273223 -1.806903 -4.218212 -10.822969 -1.163594 -0.809209 10.170174 -8.002670 2.943788 -11.010764 -7.345037 33.386170 96.128028 67.540298 -95.581934 0.000000 0.000000 0.000000 
-8.644339 92.251884 -3.788589 0.000000 0.000000 0.000000 -0.536549 -47.626923 0.679788 -29.601548 13.963406 22.870448 36.243364 -4.628748 -3.136174 -3.994587 4.553304 -10.882904 1.874784 0.102216 -0.933819 0.000000 0.000000 0.000000 -0.290408 -46.430817 0.604293 -14.053451 -12.302923 -17.049653 29.059904 9.635004 -3.795244 -15.878199 -12.646019 30.442122 7.753945 7.197485 -24.243917 0.000000 0.000000 0.000000 -1.098065 -41.181946 -0.133209 8.750655 -2.265121 -2.099220 4.662529 -0.934192 -5.012035 0.132033 -0.041810 -0.035073 0.000000 0.000000 0.000000 7.950814 1.054606 -2.994821 -3.744193 25.330373 14.028591 -39.916421 10.509528 8.741121 0.000000 0.000000 0.000000 6.245821 -0.015730 -3.791676 -1.418297 11.006910 5.899233 0.480218 -12.373086 4.878110 -38.104348 34.230258 0.510144 16.767886 -76.280598 13.832240 0.000000 0.000000 0.000000 4.727492 -1.434629 -3.680642 -11.813195 -3.558122 -2.297285 9.920245 -9.186527 2.138139 -5.698035 -9.046367 31.046939 91.917189 66.462856 -93.220853 0.000000 0.000000 0.000000 
-9.800150 94.595482 -2.943497 0.000000 0.000000 0.000000 -0.209746 -46.247347 0.362259 -27.528323 13.913737 22.007542 32.207897 -4.734282 -2.932586 -2.259893 4.639493 -10.395462 2.772070 -0.212151 0.043423 0.000000 0.000000 0.000000 0.019560 -45.514663 0.263829 -9.419327 -13.498035 -15.736445 22.264364 9.991414 -2.881856 -14.009645 -12.314702 30.343634 7.653643 7.554609 -24.891398 0.000000 0.000000 0.000000 -0.437854 -39.813699 -0.253281 8.657815 -1.494644 -2.746615 3.797630 -0.577335 -4.680324 0.107690 -0.003306 -0.071945 0.000000 0.000000 0.000000 7.836382 1.455885 -2.975511 -1.708641 24.361179 15.721707 -39.718711 11.219384 9.126899 0.000000 0.000000 0.000000 5.415228 0.257894 -3.573567 -3.032755 14.994681 9.428146 0.838919 -12.108578 6.301180 -41.817792 36.769272 8.059881 6.833914 -78.198399 5.025923 0.000000 0.000000 0.000000 4.371528 -1.031585 -3.240645 -12.700692 -6.043201 -3.606790 9.191824 -10.216780 1.447505 -1.305302 -12.118619 29.183622 89.865318 65.915123 -92.165302 0.000000 0.000000 0.000000 
-10.942611 96.656425 -2.139950 0.000000 0.000000 0.000000 0.121257 -45.004871 0.186969 -26.061782 13.883354 21.188510 28.853161 -4.702508 -2.694186 -0.633774 4.834394 -9.867188 2.901886 -0.435559 1.008685 0.000000 0.000000 0.000000 0.353551 -44.569050 0.095254 -5.690627 -13.623356 -14.481637 16.651678 10.763371 -2.073621 -12.005506 -11.409290 30.048034 6.560860 8.192502 -25.021232 0.000000 0.000000 0.000000 -0.106302 -38.135091 -0.545549 8.732786 -0.705163 -3.295526 3.031442 -0.272649 -4.320149 0.123715 0.011734 -0.060534 0.000000 0.000000 0.000000 7.691077 1.807223 -2.985970 1.018349 23.529713 16.394457 -39.614834 10.676183 9.027349 0.000000 0.000000 0.000000 4.913617 0.365691 -3.447190 -4.728116 18.487183 12.926197 1.989271 -10.991394 6.983914 -45.559185 37.540851 14.080163 0.625487 -76.481713 -0.389327 0.000000 0.000000 0.000000 4.259303 -0.660125 -2.864450 -13.441582 -8.408774 -4.703454 8.159654 -11.025950 1.131175 1.537949 -16.533475 27.504053 89.077708 66.105467 -91.562231 0.000000 0.000000 0.000000 
